HIERARCHY
ROOT Hips
{
 OFFSET 0.000000 0.000000 0.000000
 CHANNELS 6 Xposition Yposition Zposition Yrotation Xrotation Zrotation
 JOINT Chest
 {
  OFFSET 0.000000 9.585900 0.002600
  CHANNELS 3 Yrotation Xrotation Zrotation
  JOINT Chest2
  {
   OFFSET 0.000000 9.601200 -0.005300
   CHANNELS 3 Yrotation Xrotation Zrotation
   JOINT Chest3
   {
    OFFSET 0.000000 9.561800 0.000000
    CHANNELS 3 Yrotation Xrotation Zrotation
    JOINT Chest4
    {
     OFFSET 0.000000 9.552100 0.000000
     CHANNELS 3 Yrotation Xrotation Zrotation
     JOINT Neck
     {
      OFFSET 0.000000 14.453000 0.000000
      CHANNELS 3 Yrotation Xrotation Zrotation
      JOINT Head
      {
       OFFSET 0.000000 8.936500 -0.011300
       CHANNELS 3 Yrotation Xrotation Zrotation
       End Site
       {
        OFFSET 0.000000 17.073600 -0.006000
       }
      }
     }
     JOINT RightCollar
     {
      OFFSET -2.921100 9.558500 0.000000
      CHANNELS 3 Yrotation Xrotation Zrotation
      JOINT RightShoulder
      {
       OFFSET -13.519700 0.000000 0.000000
       CHANNELS 3 Yrotation Xrotation Zrotation
       JOINT RightElbow
       {
        OFFSET 0.000000 -29.696600 0.000000
        CHANNELS 3 Yrotation Xrotation Zrotation
        JOINT RightWrist
        {
         OFFSET 0.000000 -24.004700 0.000000
         CHANNELS 3 Yrotation Xrotation Zrotation
         End Site
         {
          OFFSET 0.000000 -17.728500 0.000000
         }
        }
       }
      }
     }
     JOINT LeftCollar
     {
      OFFSET 2.921100 9.558500 0.000000
      CHANNELS 3 Yrotation Xrotation Zrotation
      JOINT LeftShoulder
      {
       OFFSET 13.519700 0.000000 0.000000
       CHANNELS 3 Yrotation Xrotation Zrotation
       JOINT LeftElbow
       {
        OFFSET 0.000000 -29.696600 0.000000
        CHANNELS 3 Yrotation Xrotation Zrotation
        JOINT LeftWrist
        {
         OFFSET 0.000000 -24.004700 0.000000
         CHANNELS 3 Yrotation Xrotation Zrotation
         End Site
         {
          OFFSET 0.000000 -17.728500 0.000000
         }
        }
       }
      }
     }
    }
   }
  }
 }
 JOINT RightHip
 {
  OFFSET -7.771700 -0.012900 -0.001300
  CHANNELS 3 Yrotation Xrotation Zrotation
  JOINT RightKnee
  {
   OFFSET 0.000000 -40.869800 0.001200
   CHANNELS 3 Yrotation Xrotation Zrotation
   JOINT RightAnkle
   {
    OFFSET 0.000000 -39.717900 0.002100
    CHANNELS 3 Yrotation Xrotation Zrotation
    JOINT RightToe
    {
     OFFSET 0.000000 -4.965400 11.033500
     CHANNELS 3 Yrotation Xrotation Zrotation
     End Site
     {
      OFFSET 0.000000 -1.423100 5.872300
     }
    }
   }
  }
 }
 JOINT LeftHip
 {
  OFFSET 7.771700 -0.012900 -0.001300
  CHANNELS 3 Yrotation Xrotation Zrotation
  JOINT LeftKnee
  {
   OFFSET 0.000000 -40.869800 0.001200
   CHANNELS 3 Yrotation Xrotation Zrotation
   JOINT LeftAnkle
   {
    OFFSET 0.000000 -39.717900 0.002100
    CHANNELS 3 Yrotation Xrotation Zrotation
    JOINT LeftToe
    {
     OFFSET 0.000000 -4.965400 11.033500
     CHANNELS 3 Yrotation Xrotation Zrotation
     End Site
     {
      OFFSET 0.000000 -1.423100 5.872300
     }
    }
   }
  }
 }
}
MOTION
Frames: 15
Frame Time: 0.008333
-24.222673 60.305735 29.237202 161.129963 -28.777581 3.777183 2.601884 20.200194 1.707463 0.273176 2.546898 0.240967 0.427074 4.171040 0.368694 2.062502 17.299605 1.852615 4.233772 14.621113 -1.841446 4.921653 -10.275964 -2.943965 5.013308 2.507979 -5.867521 15.132355 -13.072966 -6.127727 -73.082743 -49.220043 101.027872 -9.205079 -5.241926 -12.081359 -8.751507 0.363331 -3.443446 3.741413 -9.029911 1.400225 51.083743 -51.695437 -102.612884 -11.132876 0.893196 -18.510620 7.105509 -42.214966 -0.029313 -26.368519 68.299425 -28.179137 -1.548819 -1.303558 2.893882 1.117416 -0.735650 0.376591 7.843699 -39.114039 0.413939 30.148512 67.436086 29.971288 -15.813097 -14.030465 -1.610974 -0.630080 0.775467 -0.146754
-24.236650 60.305989 29.237634 161.119255 -28.792681 3.785284 2.606339 20.215459 1.700447 0.264362 2.545770 0.229776 0.431562 4.173799 0.368055 2.060028 17.303351 1.844725 4.231655 14.604058 -1.830270 4.917441 -10.290505 -2.935876 5.014213 2.498412 -5.856642 15.081946 -13.053094 -6.141582 -73.044601 -49.218465 101.032044 -9.198055 -5.247221 -12.079102 -8.761355 0.333628 -3.431146 3.728965 -9.024429 1.421189 51.108566 -51.723839 -102.607485 -11.142670 0.907384 -18.512618 7.053156 -42.198828 -0.063761 -26.234065 68.321160 -27.998931 -1.535455 -1.312441 2.845544 1.118136 -0.727898 0.374948 7.921419 -39.108707 0.420875 30.088440 67.482102 29.865473 -15.871711 -14.048437 -1.541097 -0.655935 0.781826 -0.143757
-24.248131 60.306396 29.238647 161.112717 -28.808506 3.778808 2.607468 20.230648 1.695373 0.264423 2.546839 0.229120 0.436782 4.173970 0.374594 2.061375 17.305191 1.843616 4.217817 14.592508 -1.831497 4.888628 -10.329704 -2.924398 4.986243 2.492427 -5.859379 15.043687 -13.030731 -6.154521 -72.979054 -49.243327 100.976003 -9.190707 -5.243973 -12.072659 -8.782469 0.304379 -3.429164 3.719030 -9.017050 1.443946 51.126724 -51.830375 -102.616395 -11.085965 0.896732 -18.488096 6.982342 -42.183014 -0.074385 -26.114283 68.337796 -27.836205 -1.516780 -1.316998 2.789208 1.119544 -0.724026 0.381867 7.977761 -39.102989 0.444418 30.024180 67.520151 29.771663 -15.964428 -14.071793 -1.497214 -0.707054 0.777326 -0.161212
-24.255885 60.307290 29.239848 161.114416 -28.829740 3.750265 2.609349 20.246599 1.709155 0.262184 2.546998 0.215906 0.444620 4.177676 0.394983 2.063951 17.307245 1.843614 4.190903 14.572482 -1.839036 4.895225 -10.337754 -2.912729 4.955669 2.487032 -5.862514 15.003771 -13.002504 -6.169354 -72.938323 -49.243749 100.984765 -9.185719 -5.247039 -12.068456 -8.803662 0.277855 -3.427932 3.707603 -9.006328 1.467350 51.152539 -51.882317 -102.620145 -11.092321 0.896718 -18.480353 6.918801 -42.164452 -0.051022 -26.091440 68.338376 -27.756755 -1.535858 -1.311476 2.704525 1.159533 -0.727161 0.422902 8.006618 -39.093524 0.492395 29.948544 67.553002 29.682103 -16.093990 -14.100302 -1.461154 -0.689044 0.776123 -0.176503
-24.268385 60.308079 29.240680 161.102107 -28.841498 3.760500 2.614516 20.253547 1.678985 0.264953 2.551807 0.234357 0.441299 4.179485 0.376819 2.064910 17.314405 1.843534 4.200568 14.557524 -1.820119 4.880447 -10.355693 -2.907498 4.941488 2.480126 -5.853631 14.956551 -12.972411 -6.186047 -72.923947 -49.231145 101.039377 -9.163892 -5.240298 -12.088355 -8.802623 0.261047 -3.408333 3.643795 -9.030101 1.503115 51.202479 -51.878586 -102.598965 -11.095988 0.896555 -18.476601 6.847684 -42.150098 -0.081759 -25.938121 68.358730 -27.570304 -1.490088 -1.322163 2.659265 1.135932 -0.718277 0.416562 8.072890 -39.086776 0.495045 29.881368 67.584652 29.587644 -16.190034 -14.110405 -1.402830 -0.598545 0.763625 -0.187125
-24.276615 60.308670 29.243077 161.099642 -28.850671 3.744261 2.624975 20.258661 1.688853 0.261949 2.554026 0.237677 0.444620 4.180579 0.373821 2.065779 17.315694 1.848646 4.195754 14.550466 -1.818165 4.869651 -10.365553 -2.903142 4.913724 2.487529 -5.859738 14.908288 -12.940544 -6.207943 -72.919139 -49.218273 101.109457 -9.141608 -5.224509 -12.115431 -8.822912 0.235388 -3.410846 3.648971 -9.014747 1.518972 51.208785 -51.905291 -102.597397 -11.100590 0.895570 -18.471470 6.748437 -42.140943 -0.082045 -25.786479 68.377952 -27.386906 -1.431550 -1.327139 2.620539 1.097206 -0.715964 0.402982 8.113759 -39.083858 0.517202 29.835127 67.612108 29.498680 -16.158868 -14.134504 -1.367407 -0.563707 0.770172 -0.178759
-24.277951 60.310180 29.245565 161.121168 -28.873167 3.683676 2.626808 20.272899 1.733894 0.264156 2.557454 0.240702 0.441534 4.181607 0.377168 2.066968 17.317739 1.849428 4.168501 14.536978 -1.827060 4.889356 -10.360294 -2.895122 4.881480 2.495964 -5.864823 14.854941 -12.904570 -6.232604 -72.856270 -49.250680 101.078702 -9.182592 -5.252670 -12.046874 -8.839362 0.214110 -3.413653 3.650580 -9.004305 1.533120 51.222991 -51.966115 -102.601744 -11.105923 0.899658 -18.480092 6.646429 -42.123025 -0.026212 -25.770851 68.377042 -27.316145 -1.439363 -1.313399 2.559452 1.105876 -0.728075 0.437249 8.078124 -39.071913 0.579561 29.826667 67.623498 29.460648 -16.107155 -14.168653 -1.360166 -0.641331 0.788602 -0.184073
-24.283595 60.312581 29.245892 161.126663 -28.899102 3.666364 2.628659 20.291295 1.739833 0.266170 2.555985 0.229389 0.439464 4.188838 0.395471 2.065261 17.326227 1.833761 4.160868 14.522773 -1.816966 4.874538 -10.373354 -2.886880 4.857350 2.496653 -5.855699 14.792777 -12.861941 -6.255413 -72.826821 -49.257443 101.114709 -9.198571 -5.259357 -12.018105 -8.841031 0.203349 -3.395737 3.625824 -9.012648 1.547286 51.254075 -52.076046 -102.602129 -11.132754 0.915298 -18.504753 6.589445 -42.098086 -0.015805 -25.771894 68.375741 -27.261554 -1.473762 -1.309070 2.504716 1.171258 -0.733500 0.440445 8.123451 -39.049725 0.604256 29.691778 67.644218 29.358686 -16.323137 -14.191762 -1.363051 -0.631882 0.792036 -0.169122
-24.302001 60.314008 29.245698 161.110664 -28.900516 3.739635 2.619609 20.287803 1.659069 0.266411 2.557897 0.229133 0.442216 4.190996 0.381918 2.067395 17.334222 1.845108 4.153071 14.511811 -1.813538 4.838495 -10.397944 -2.881442 4.838072 2.504880 -5.851773 14.725582 -12.816106 -6.278193 -72.800172 -49.265251 101.147172 -9.156182 -5.231572 -12.076734 -8.842275 0.197140 -3.384281 3.612604 -9.024142 1.557425 51.273699 -52.156429 -102.594606 -11.123908 0.918417 -18.512635 6.525780 -42.090144 -0.107335 -25.519530 68.412457 -27.043452 -1.370405 -1.327448 2.510605 1.068939 -0.721792 0.404656 8.253267 -39.036865 0.521386 29.583918 67.659704 29.243391 -16.474473 -14.174121 -1.315285 -0.664849 0.767098 -0.183406
-24.310981 60.314918 29.248447 161.129858 -28.902505 3.743076 2.598420 20.284247 1.640076 0.266561 2.558767 0.228988 0.442842 4.189046 0.375492 2.069671 17.340219 1.854580 4.142141 14.504237 -1.822899 4.833803 -10.402752 -2.874799 4.812138 2.520767 -5.850877 14.663193 -12.766112 -6.310130 -72.772964 -49.270667 101.177120 -9.140372 -5.229091 -12.095512 -8.844736 0.182903 -3.389345 3.600743 -9.039551 1.575212 51.282349 -52.192219 -102.571904 -11.155538 0.927747 -18.515895 6.421945 -42.087681 -0.134074 -25.437195 68.424254 -26.928163 -1.315313 -1.339855 2.432072 1.046310 -0.716448 0.424352 8.292375 -39.033528 0.500909 29.558728 67.663978 29.167029 -16.421869 -14.167626 -1.251941 -0.666938 0.768266 -0.201193
-24.310361 60.316487 29.251895 161.143892 -28.917506 3.698678 2.601206 20.291587 1.675622 0.266695 2.559485 0.228833 0.441805 4.189999 0.375479 2.071413 17.341483 1.845104 4.137093 14.499687 -1.816160 4.836256 -10.401985 -2.868062 4.791898 2.540222 -5.839926 14.591042 -12.712031 -6.339106 -72.747932 -49.271987 101.210730 -9.143397 -5.241214 -12.069739 -8.844578 0.185089 -3.374979 3.598425 -9.048175 1.577674 51.281605 -52.204714 -102.562327 -11.238611 0.938279 -18.508248 6.318459 -42.077183 -0.093487 -25.432197 68.423530 -26.870541 -1.294042 -1.330737 2.371338 1.059430 -0.727762 0.429099 8.287748 -39.025638 0.538618 29.546249 67.667081 29.139137 -16.346278 -14.182570 -1.249461 -0.588425 0.779893 -0.186734
-24.306799 60.318433 29.255177 161.153054 -28.937503 3.644862 2.605312 20.297367 1.716091 0.268213 2.561220 0.228548 0.445133 4.196221 0.381081 2.082973 17.340380 1.826184 4.132887 14.500079 -1.790485 4.815467 -10.412290 -2.870554 4.764556 2.565427 -5.817721 14.512601 -12.656204 -6.367701 -72.753646 -49.262583 101.309964 -9.147354 -5.249931 -12.047626 -8.850262 0.188079 -3.354883 3.596303 -9.050668 1.584615 51.363618 -52.368967 -102.565693 -11.118072 0.949722 -18.562826 6.245470 -42.062624 -0.032298 -25.463969 68.416877 -26.850093 -1.310472 -1.311270 2.323557 1.090397 -0.744573 0.440393 8.255502 -39.014157 0.595009 29.578623 67.667888 29.146147 -16.234368 -14.204476 -1.255317 -0.508423 0.791869 -0.172974
-24.307896 60.320638 29.256940 161.143343 -28.954967 3.633433 2.617528 20.304402 1.727471 0.269166 2.562915 0.228066 0.449578 4.192195 0.372427 2.092294 17.348244 1.829542 4.120174 14.499613 -1.784320 4.804654 -10.415521 -2.866658 4.734842 2.629209 -5.811529 14.425660 -12.633075 -6.401085 -72.706061 -49.261585 101.328840 -9.135596 -5.230757 -12.070748 -8.854616 0.191699 -3.347656 3.600543 -9.053371 1.593625 51.416055 -52.510237 -102.558760 -11.134209 0.958364 -18.583043 6.165428 -42.043805 -0.023701 -25.333426 68.433084 -26.692630 -1.268696 -1.311754 2.294778 1.062239 -0.746611 0.418738 8.265358 -38.998381 0.611829 29.601361 67.669952 29.150216 -16.192089 -14.215515 -1.255762 -0.444960 0.792589 -0.155773
-24.321977 60.323628 29.254574 161.111409 -28.969829 3.718016 2.620411 20.311929 1.645665 0.276402 2.552750 0.217870 0.443669 4.212201 0.390032 2.101814 17.343531 1.816939 4.110799 14.503563 -1.779629 4.793558 -10.413810 -2.861284 4.721579 2.651121 -5.795579 14.314441 -12.559248 -6.425992 -72.645941 -49.259191 101.346375 -9.133559 -5.225980 -12.067196 -8.864214 0.201202 -3.338675 3.616872 -9.055738 1.604033 51.462866 -52.638491 -102.557356 -11.184501 0.969747 -18.587851 6.129629 -42.014788 -0.136005 -25.047997 68.469310 -26.418404 -1.178908 -1.341632 2.315715 0.987814 -0.723721 0.343003 8.367699 -38.970758 0.541833 29.537213 67.679455 29.094199 -16.440028 -14.193121 -1.235464 -0.517941 0.757750 -0.164778
-24.336668 60.326555 29.252130 161.092341 -28.982418 3.803755 2.614343 20.317224 1.557517 0.275761 2.550374 0.217545 0.447010 4.217349 0.388991 2.108206 17.340502 1.813273 4.101312 14.512058 -1.776765 4.782732 -10.411442 -2.857182 4.708234 2.678309 -5.778675 14.195104 -12.481942 -6.445764 -72.602190 -49.260772 101.394638 -9.130955 -5.228229 -12.065148 -8.872417 0.215263 -3.332236 3.622996 -9.055749 1.616088 51.533785 -52.778718 -102.558765 -11.206265 0.987252 -18.597075 6.161835 -41.988125 -0.255495 -24.902271 68.486275 -26.276550 -1.125282 -1.369809 2.324202 0.924316 -0.695511 0.328690 8.455196 -38.946327 0.470002 29.472520 67.688609 29.033408 -16.733647 -14.165942 -1.202512 -0.638597 0.721056 -0.194899
